<svg id="Capa_1" enable-background="new 0 0 512 512" height="512" viewBox="0 0 512 512" width="512" xmlns="http://www.w3.org/2000/svg"><g><path d="m317.582 8.291c2.549-5.083 7.734-8.291 13.418-8.291h60c5.2 0 10.02 2.695 12.759 7.119s2.988 9.946.659 14.59l-90 181-86.836-13.418z" fill="#e63a17"/><path d="m256 132.455-61.582-124.164c-2.549-5.083-7.734-8.291-13.418-8.291h-60c-5.2 0-10.02 2.695-12.759 7.119s-2.988 9.946-.659 14.59l90 181 58.418-9.027 28.418-4.391z" fill="#ff6533"/><path d="m256 132.455v61.227l28.418-4.391z" fill="#e63a17"/><g><path d="m271 196v60c0 8.399-6.599 15-15 15s-15-6.601-15-15v-60c0-8.401 6.599-15 15-15s15 6.599 15 15z" fill="#ffbe40"/></g><path d="m256 271v-90c8.401 0 15 6.599 15 15v60c0 8.399-6.599 15-15 15z" fill="#ff9f40"/><g><path d="m256 241c-74.399 0-135 60.599-135 135 0 74.399 60.601 136 135 136s135-61.601 135-136c0-74.401-60.601-135-135-135z" fill="#ffdf40"/></g><path d="m391 376c0 74.399-60.601 136-135 136v-271c74.399 0 135 60.599 135 135z" fill="#ffbe40"/><g><path d="m311.499 356.499-55.499 55.501-4.501 4.499c-5.7 6-15.298 6-20.999 0l-30-30c-6-5.7-6-15.3 0-21 5.7-5.999 15.298-5.999 20.999 0l19.501 19.2 15-15 34.501-34.2c5.7-5.999 15.298-5.999 20.999 0 6 5.7 6 15.3-.001 21z" fill="#ffbe40"/></g><path d="m311.499 356.499-55.499 55.501v-42.301l34.501-34.2c5.7-5.999 15.298-5.999 20.999 0 6 5.7 6 15.3-.001 21z" fill="#ff9f40"/><g><path d="m361 196c0 8.399-6.599 15-15 15h-180c-8.401 0-15-6.601-15-15 0-8.401 6.599-15 15-15h180c8.401 0 15 6.599 15 15z" fill="#ffdf40"/></g><path d="m346 211h-90v-30h90c8.401 0 15 6.599 15 15 0 8.399-6.599 15-15 15z" fill="#ffbe40"/></g></svg>